inDegrees=no
num_controls=7
num_derivatives=13
num_iterations=121
num_multipliers=7
num_parameters=0
num_slacks=7
num_states=26
objective=0.516750
objective_accelerations=0.039996
objective_balance=0.002261
objective_effort=0.044164
objective_height=0.418792
objective_ligament=0.011537
solver_duration=1591.616473
status=Solve_Succeeded
success=true
DataType=double
version=3
OpenSimVersion=4.5
endheader
time	/jointset/ground_pelvis/pelvis_tilt/value	/jointset/ground_pelvis/pelvis_tx/value	/jointset/ground_pelvis/pelvis_ty/value	/jointset/hip_l/hip_flexion_l/value	/jointset/hip_l/hip_adduction_l/value	/jointset/hip_l/hip_rotation_l/value	/jointset/back/lumbar_extension/value	/jointset/patellofemoral_l/patellar_flexion_l/value	/jointset/knee_l/knee_flexion_l/value	/jointset/knee_l/knee_adduction_l/value	/jointset/knee_l/knee_rotation_l/value	/jointset/ankle_l/ankle_angle_l/value	/jointset/subtalar_l/subtalar_angle_l/value	/jointset/ground_pelvis/pelvis_tilt/speed	/jointset/ground_pelvis/pelvis_tx/speed	/jointset/ground_pelvis/pelvis_ty/speed	/jointset/hip_l/hip_flexion_l/speed	/jointset/hip_l/hip_adduction_l/speed	/jointset/hip_l/hip_rotation_l/speed	/jointset/back/lumbar_extension/speed	/jointset/patellofemoral_l/patellar_flexion_l/speed	/jointset/knee_l/knee_flexion_l/speed	/jointset/knee_l/knee_adduction_l/speed	/jointset/knee_l/knee_rotation_l/speed	/jointset/ankle_l/ankle_angle_l/speed	/jointset/subtalar_l/subtalar_angle_l/speed	/forceset/tau_hip_flexion_l	/forceset/tau_hip_adduction_l	/forceset/tau_hip_rotation_l	/forceset/tau_knee_flexion_l	/forceset/tau_ankle_angle_l	/forceset/tau_subtalar_angle_l	/forceset/tau_lumbar_extension	lambda_cid13_p0	lambda_cid13_p1	lambda_cid13_p2	lambda_cid13_p3	lambda_cid13_p4	lambda_cid13_p5	lambda_cid14_p0	/jointset/ground_pelvis/pelvis_tilt/accel	/jointset/ground_pelvis/pelvis_tx/accel	/jointset/ground_pelvis/pelvis_ty/accel	/jointset/hip_l/hip_flexion_l/accel	/jointset/hip_l/hip_adduction_l/accel	/jointset/hip_l/hip_rotation_l/accel	/jointset/back/lumbar_extension/accel	/jointset/patellofemoral_l/patellar_flexion_l/accel	/jointset/knee_l/knee_flexion_l/accel	/jointset/knee_l/knee_adduction_l/accel	/jointset/knee_l/knee_rotation_l/accel	/jointset/ankle_l/ankle_angle_l/accel	/jointset/subtalar_l/subtalar_angle_l/accel	gamma_cid13_p0	gamma_cid13_p1	gamma_cid13_p2	gamma_cid13_p3	gamma_cid13_p4	gamma_cid13_p5	gamma_cid14_p0
1	-0.1643761113998435	-0.09374067166536772	0.7250160030386497	1.267185425765657	-0.3277306445792896	-0.003079700131687038	-0.9599275798239678	1.162136570984901	1.16213657098478	-0.07957195689397781	-0.1745310868691836	0.1378471377156476	0.01034982351051999	0.1035307267835474	0.02441318143758052	0.06759087998838639	-0.2908280160918097	0.0002043523955056313	-0.06466859795891605	-0.001851754128441998	-0.1699655757023405	-0.1699655757023403	-0.0005047985999213811	-2.641104568375933e-05	0.008472896775227659	0.004291352891441851	-0.401598116042402	0.01291129679477081	-0.004978649531923785	-0.2938655807516325	0.1096927922283692	0.0449034003700308	0.4369052359761181	-14.86302193695698	-16.90188655777626	2.243453623912148	4.421698083001442	-786.5739759793322	-72.51877124127935	-1.756803025483749	1.056707450074128	0.195624650516837	1.256558879242151	-4.67565852382902	-0.01665814462647867	-1.399915537302634	0.2869307131860003	-4.102523036958883	-4.102523036959234	-0.2047547593944103	-0.009752227201237638	-0.7514964804496302	-0.269644470027491	-9.616732093521081e-09	-1.368034111207647e-08	4.080363481158854e-08	2.851673410494788e-09	-2.15735057952572e-08	4.916059206723834e-08	-1.137061561045516e-08
1.01	-0.1632883331075934	-0.09348670460748049	0.7257545451332996	1.264044156273337	-0.3277288267335842	-0.003796564686423814	-0.9599310705188926	1.160232140104458	1.160232140104424	-0.07958609098887916	-0.1745312051472228	0.1378944306341923	0.01038000354646935	0.1140346349504335	0.0263879581708019	0.08010918911740485	-0.3374267130817309	0.0001652593290663923	-0.07869960028857546	0.001166569437179112	-0.210915520684542	-0.2109155206845468	-0.002323248700465136	8.757233579545704e-07	0.0009827987796345884	0.001750405765869804	-0.4008772084706771	0.01306648180547295	-0.005012706761289999	-0.2936103541508756	0.1096155344144189	0.04500668704079739	0.4366204248944331	-14.85886215296143	-16.9572030792161	2.263387449254436	4.278807159359617	-786.2692230177953	-72.60515706326807	-1.79647364424874	1.048686498922883	0.1995652182469647	1.248208834735686	-4.652102091603098	0.003369689488193788	-1.403999089561701	0.3112263235418642	-4.090465341249002	-4.090465341249486	-0.1705824425739493	0.008699696640800773	-0.748201017180154	-0.2454598236543535	-1.538056014598093e-08	-2.138437902598906e-08	5.33037812037222e-08	9.081457452447063e-09	-2.804148720418874e-08	5.601953058056756e-08	-1.462873861376682e-08
1.02	-0.16209522493389	-0.09321275757555654	0.7266180187002408	1.260436874450111	-0.327727218903115	-0.0046536005662089	-0.9599039893491763	1.157918362751712	1.157918362751766	-0.07961844804622437	-0.1745311044440373	0.1378667356611678	0.01038494611319654	0.1245967030744015	0.02840917624492105	0.09257717444658031	-0.3840304822728287	0.0001623493482603227	-0.09270286296879952	0.004262618814467949	-0.2518348701626726	-0.2518348701626796	-0.00414939108859216	1.738519975650336e-05	-0.00652468153859917	-0.0007561409529940695	-0.4001563008989493	0.01322166681617728	-0.005046763990671985	-0.2933551275501191	0.1095382766004684	0.04510997371156664	0.4363356138127506	-14.86521293581661	-17.0103308557733	2.282574395801584	4.171377674746283	-786.106496525578	-72.68298563066375	-1.845246739108218	1.068339441490483	0.204912918696393	1.246494119273553	-4.676672964064327	-0.00942152749984403	-1.394367607415568	0.3024758755195935	-4.096403936144672	-4.096403936144505	-0.206293216911064	-0.01190768572986964	-0.7549729449777641	-0.2627643886858547	-2.012008154558227e-08	-2.984335555049363e-08	6.506853995245666e-08	1.277264953805216e-08	-3.303129722898042e-08	6.227690912291459e-08	-1.799383009113389e-08
1.03	-0.160796789566115	-0.09291815658866513	0.7276058644086453	1.256363995724623	-0.3277254317553883	-0.005650411123429466	-0.9598435040550581	1.155195657186666	1.155195657186677	-0.07966915268674753	-0.174530839416064	0.1377641322595405	0.01036511873200336	0.135042445837873	0.03054003945973878	0.1049782796782584	-0.4305014805750955	0.0002022648686761561	-0.1066473251927335	0.008052391474372398	-0.2926905860864323	-0.2926905860864299	-0.005996250158653125	3.47421285630567e-05	-0.01397358489636424	-0.003193043080407141	-0.4008903463037441	0.01355250395310139	-0.005090244353266667	-0.2925491010142536	0.1093173838790092	0.04537684197001207	0.4377754793599268	-14.94810619082878	-17.13125363081331	2.324167458363023	3.688975581133032	-786.8031160405978	-72.79937027153854	-1.903440093845862	1.025501113366871	0.2215290816424076	1.234857960354506	-4.625748840031139	0.01177292071957631	-1.392716679470614	0.4499206809143301	-4.077802614059158	-4.077802614057795	-0.1746012877611872	0.008443478990753943	-0.7364895661718561	-0.2317119527836349	-2.484915083648096e-08	-3.831003553020833e-08	7.682579474564622e-08	1.643793762410268e-08	-3.800602387230128e-08	6.852814929821077e-08	-2.136001308354235e-08
1.04	-0.1593953348867877	-0.09260137575787189	0.7287173090164144	1.251827719900765	-0.3277230304866763	-0.006786312532806067	-0.9597385824904	1.152064865023669	1.152064865023638	-0.07973846972511273	-0.1745304235994432	0.1375877117173362	0.01032141056393314	0.1452005653849998	0.03284514502528394	0.1172969543195157	-0.4767099019462936	0.0002851735453828054	-0.1205210334002001	0.01314987292181451	-0.3334521897528943	-0.3334521897528817	-0.007871870657016796	4.754292956287717e-05	-0.02128810965396862	-0.005532298328404407	-0.4016243917085435	0.01388334109002667	-0.005133724715870317	-0.2917430744783887	0.1090964911575508	0.04564371022845929	0.4392153449070986	-15.04169625138333	-17.25002208140299	2.365095707180915	3.24047727921937	-787.6457416906675	-72.90784688462038	-1.971400936516491	1.010814798221534	0.2397613888418843	1.230008001189392	-4.6241575778506	-0.0008228962416827409	-1.380216804122119	0.5640176330271106	-4.07758148468514	-4.077581484684819	-0.2120455025716059	-0.01281891129122054	-0.7280972249456196	-0.243235012802694	-2.710674881639347e-08	-4.650575535849524e-08	8.517906054376791e-08	1.629037548066636e-08	-4.142870491710167e-08	7.035599899563096e-08	-2.377182788442631e-08
1.05	-0.1578936079841656	-0.09226071621376378	0.7299514617666578	1.246830734994172	-0.3277195863949178	-0.008060539512620193	-0.9595767604523183	1.148527025879175	1.148527025879166	-0.07982673331890991	-0.1745299357456639	0.1373387222526797	0.01025476270202591	0.155107474934649	0.03531138302282799	0.1295129263784868	-0.5226341076689262	0.000413461540620872	-0.1343104305791811	0.01937422277479677	-0.3740898332682491	-0.374089833268255	-0.009782763325692332	4.825398532654454e-05	-0.02849635811499713	-0.007781106832490376	-0.4014320074106675	0.01420411685725503	-0.005186163431421591	-0.2909507080994008	0.1091071870925295	0.04586538899294423	0.4397662380154825	-15.01712152292574	-17.36905048773079	2.405146929058542	2.792166258764534	-787.7149612727468	-73.01453226634378	-2.049547111385279	0.9750256338022585	0.2537510912357384	1.214282410992466	-4.568609832673648	0.02112343116613294	-1.376235627891356	0.6755968734538612	-4.05297964850651	-4.052979648509451	-0.1809136152104875	0.006271482687736163	-0.715178099361103	-0.2132806494676819	-2.928711331783769e-08	-5.469300768205003e-08	9.342595168579373e-08	1.602366176755859e-08	-4.480288453694832e-08	7.204561774061753e-08	-2.615381867932514e-08
1.06	-0.1562939326659543	-0.09189465507247516	0.7313071523580392	1.241376096477709	-0.3277145656664555	-0.009472247354844424	-0.9593479042733024	1.14458358552682	1.144583585526831	-0.07993416633263234	-0.1745294897075915	0.137018052414877	0.01016611137902661	0.1647902485029241	0.03792546446138332	0.1416045225471155	-0.5682406239197216	0.000600500886241914	-0.1480172058823734	0.02655670110858166	-0.4145724313254384	-0.4145724313254636	-0.01170575464216608	3.91797881930843e-05	-0.03562418428321122	-0.009932990546821778	-0.4012396231127975	0.01452489262448407	-0.005238602146975275	-0.2901583417204133	0.1091178830275093	0.04608706775743037	0.4403171311238607	-15.00320002074661	-17.48607626025827	2.444722065279533	2.375411148565584	-787.9308854360731	-73.11500315813086	-2.138308950156409	0.9659876019467271	0.269330077044145	1.205132823120903	-4.560619683483172	0.0109273738349095	-1.363692428964394	0.7556433291876342	-4.046572393052016	-4.046572393051866	-0.2144652321312485	-0.014775961870652	-0.7120127663827298	-0.223850054851781	-3.162061433603395e-08	-6.291524118413807e-08	9.925867454495359e-08	1.640021996490186e-08	-4.811889378219663e-08	7.29237491784734e-08	-2.822419453583034e-08
